<?xml version="1.0" encoding="UTF-8" standalone="no"?>
<svg
   xmlns:dc="http://purl.org/dc/elements/1.1/"
   xmlns:cc="http://creativecommons.org/ns#"
   xmlns:rdf="http://www.w3.org/1999/02/22-rdf-syntax-ns#"
   xmlns:svg="http://www.w3.org/2000/svg"
   xmlns="http://www.w3.org/2000/svg"
   xmlns:sodipodi="http://sodipodi.sourceforge.net/DTD/sodipodi-0.dtd"
   xmlns:inkscape="http://www.inkscape.org/namespaces/inkscape"
   inkscape:version="1.0 (4035a4fb49, 2020-05-01)"
   sodipodi:docname="Artboard_tweeter.svg"
   id="svg12"
   version="1.1"
   viewBox="0 0 223 30"
   height="30px"
   width="223px">
  <metadata
     id="metadata18">
    <rdf:RDF>
      <cc:Work
         rdf:about="">
        <dc:format>image/svg+xml</dc:format>
        <dc:type
           rdf:resource="http://purl.org/dc/dcmitype/StillImage" />
        <dc:title>Artboard</dc:title>
      </cc:Work>
    </rdf:RDF>
  </metadata>
  <defs
     id="defs16">
    <style
       id="style861">.cls-1{fill:none;}.cls-2{fill:#1da1f2;}</style>
  </defs>
  <sodipodi:namedview
     inkscape:current-layer="svg12"
     inkscape:window-maximized="1"
     inkscape:window-y="-8"
     inkscape:window-x="-8"
     inkscape:cy="64.940915"
     inkscape:cx="28.255831"
     inkscape:zoom="4.1443433"
     showgrid="false"
     id="namedview14"
     inkscape:window-height="1017"
     inkscape:window-width="1920"
     inkscape:pageshadow="2"
     inkscape:pageopacity="0"
     guidetolerance="10"
     gridtolerance="10"
     objecttolerance="10"
     borderopacity="1"
     bordercolor="#666666"
     pagecolor="#ffffff" />
  <!-- Generator: Sketch 53.2 (72643) - https://sketchapp.com -->
  <title
     id="title2">Artboard</title>
  <desc
     id="desc4">Created with Sketch.</desc>
  <g
     id="g887">
    <rect
       style="fill-rule:evenodd;stroke:none;stroke-width:1;fill:#189bee;fill-opacity:1"
       rx="8"
       height="30"
       width="223"
       y="0"
       x="0"
       fill="#ff5e5b"
       id="Rectangle" />
    <text
       xml:space="preserve"
       style="font-style:normal;font-variant:normal;font-weight:normal;font-stretch:normal;font-size:15.1373px;line-height:1.25;font-family:'Roboto Mono';-inkscape-font-specification:'Roboto Mono';text-align:center;letter-spacing:0px;word-spacing:0px;text-anchor:middle;fill:#ffffff;fill-opacity:1;stroke:none;stroke-width:0.709562"
       x="133.28938"
       y="20.302822"
       id="text859"><tspan
         sodipodi:role="line"
         id="tspan857"
         x="133.28938"
         y="20.302822"
         style="font-style:normal;font-variant:normal;font-weight:normal;font-stretch:normal;font-family:mont;-inkscape-font-specification:mont;fill:#ffffff;stroke-width:0.709562">Follow On Twitter</tspan></text>
    <g
       id="g879"
       transform="matrix(0.07865341,0,0,0.07865341,18.665703,-0.21123676)">
      <rect
         id="rect867"
         height="400"
         width="400"
         class="cls-1"
         x="0"
         y="0" />
      <path
         id="path869"
         d="m 153.62,301.59 c 94.34,0 145.94,-78.16 145.94,-145.94 0,-2.22 0,-4.43 -0.15,-6.63 A 104.36,104.36 0 0 0 325,122.47 102.38,102.38 0 0 1 295.54,130.54 51.47,51.47 0 0 0 318.09,102.17 102.79,102.79 0 0 1 285.52,114.62 51.34,51.34 0 0 0 198.11,161.4 145.62,145.62 0 0 1 92.4,107.81 51.33,51.33 0 0 0 108.28,176.28 50.91,50.91 0 0 1 85,169.86 c 0,0.21 0,0.43 0,0.65 a 51.31,51.31 0 0 0 41.15,50.28 51.21,51.21 0 0 1 -23.16,0.88 51.35,51.35 0 0 0 47.92,35.62 102.92,102.92 0 0 1 -63.7,22 104.41,104.41 0 0 1 -12.21,-0.74 145.21,145.21 0 0 0 78.62,23"
         class="cls-2"
         style="fill:#ffffff" />
    </g>
  </g>
</svg>
