<?xml version="1.0" encoding="UTF-8"?>
<svg  version="1.1" viewBox="0 0 127 127" xmlns="http://www.w3.org/2000/svg" xmlns:cc="http://creativecommons.org/ns#" xmlns:dc="http://purl.org/dc/elements/1.1/" xmlns:rdf="http://www.w3.org/1999/02/22-rdf-syntax-ns#">
 <metadata>
  <rdf:RDF>
   <cc:Work rdf:about="">
    <dc:format>image/svg+xml</dc:format>
    <dc:type rdf:resource="http://purl.org/dc/dcmitype/StillImage"/>
    <dc:title/>
   </cc:Work>
  </rdf:RDF>
 </metadata>
 <g transform="translate(-.75595 -78.997)">
  <g transform="matrix(.95833 0 0 .95833 2.6773 5.9374)">
   <circle cx="64.256" cy="142.5" r="63.5" fill="#fff"/>
   <g transform="matrix(3.8326 0 0 3.8326 -431.33 -294.95)" stroke-width=".26458">
    <path d="m115.98 116.73c0.57476-1.055 1.6674-3.0791 2.428-4.4979l1.383-2.5797h10.588l-0.77882 1.3891c-0.42835 0.76398-1.5308 2.788-2.45 4.4979l-1.6712 3.1089h-10.544z" fill="#60919b"/>
    <path d="m133.24 118.72c-0.21828-0.0803-0.60523-0.32744-0.85989-0.54929-0.41694-0.36321-0.46302-0.35978-0.46302 0.0345 0 0.29068-0.22236 0.43788-0.66146 0.43788h-0.66146v-9.2604h0.66146c0.6383 0 0.66146 0.0607 0.66146 1.7348v1.7348l0.58803-0.41188c0.67867-0.47536 2.3765-0.54314 3.1559-0.126 0.71083 0.38043 1.2834 1.8144 1.2821 3.2114-2e-3 2.308-1.8285 3.8835-3.7032 3.1942zm1.8329-1.5678c1.292-1.6424 0.21548-4.6298-1.5155-4.2056-1.182 0.28967-1.508 0.81324-1.508 2.422 0 1.2248 0.1039 1.5533 0.62462 1.9749 0.8705 0.70489 1.749 0.63481 2.3989-0.19135zm4.3639 1.3926c-2.0718-0.93419-2.2355-4.8387-0.25715-6.135 1.457-0.95469 3.8633-0.32813 4.4094 1.1482 0.18545 0.50132 0.12648 0.58713-0.40347 0.58713-0.34136 0-0.78401-0.23271-0.98366-0.51714-1.0972-1.5631-3.1411-0.48288-3.1411 1.6601 0 2.4461 2.1246 3.5062 3.1447 1.5691 0.19287-0.36625 0.55913-0.59531 0.95188-0.59531 0.59689 0 0.62008 0.0525 0.35678 0.80782-0.5103 1.4638-2.5034 2.1849-4.0774 1.4752z" fill="#030303"/>
   </g>
  </g>
 </g>
</svg>
