<?xml version="1.0" encoding="UTF-8"?>
<svg  version="1.1" viewBox="0 0 133.34 133.3" xmlns="http://www.w3.org/2000/svg" xmlns:cc="http://creativecommons.org/ns#" xmlns:dc="http://purl.org/dc/elements/1.1/" xmlns:rdf="http://www.w3.org/1999/02/22-rdf-syntax-ns#">
 <metadata>
  <rdf:RDF>
   <cc:Work rdf:about="">
    <dc:format>image/svg+xml</dc:format>
    <dc:type rdf:resource="http://purl.org/dc/dcmitype/StillImage"/>
    <dc:title/>
   </cc:Work>
  </rdf:RDF>
 </metadata>
 <g transform="translate(-40.858 -89.484)">
  <path d="m84.674 217.48c-5.8244-0.2318-9.9469-0.74616-13.511-1.6857-11.95-3.1504-20.352-11.646-23.377-23.637-1.4838-5.8816-1.8518-13.017-1.8506-35.882 9.24e-4 -23.525 0.36644-30.379 1.9407-36.42 3.1215-11.979 11.627-20.411 23.647-23.444 5.8816-1.4838 13.017-1.8518 35.882-1.8506 23.525 9.24e-4 30.379 0.36644 36.42 1.9407 11.979 3.1215 20.411 11.627 23.444 23.647 1.4813 5.872 1.8498 13.043 1.8498 36.004 0 23.391-0.36727 30.263-1.9398 36.298-3.1215 11.979-11.627 20.411-23.647 23.444-3.5957 0.9071-7.3597 1.3348-14.128 1.6054-7.0438 0.28163-37.494 0.26803-44.731-0.0199zm37.765-10.972c11.942-0.23929 15.198-0.51345 18.924-1.593 4.0949-1.1867 6.4846-2.5342 9.2685-5.2265 3.7538-3.6302 5.7575-8.0158 6.6426-14.539 0.96853-7.1379 0.96853-50.857 0-57.995-0.60707-4.474-1.9809-8.5403-3.8033-11.257-1.1222-1.6731-3.776-4.3504-5.455-5.5033-2.9056-1.9951-6.82-3.3535-11.489-3.9871-7.1379-0.96853-50.857-0.96853-57.995 0-4.6694 0.63359-8.5838 1.992-11.489 3.9871-1.6789 1.1528-4.3327 3.8301-5.455 5.5033-1.8224 2.717-3.1962 6.7833-3.8033 11.257-0.96853 7.1379-0.96853 50.857 0 57.995 0.63359 4.6694 1.992 8.5838 3.9871 11.489 1.1528 1.6789 3.8301 4.3327 5.5033 5.455 2.7771 1.8627 6.8139 3.2066 11.507 3.8306 5.0258 0.66829 25.661 0.94405 43.658 0.58342zm-20.551-19.204c-12.99-2.3523-23.257-12.691-25.526-25.704-0.47002-2.6953-0.47002-8.2014 0-10.897 2.2856-13.107 12.612-23.433 25.719-25.719 2.6953-0.47003 8.2014-0.47003 10.897 0 13.107 2.2856 23.433 12.612 25.719 25.719 0.47001 2.6953 0.47001 8.2014 0 10.897-2.2856 13.107-12.612 23.433-25.719 25.719-2.6004 0.45348-8.5473 0.44555-11.089-0.0148zm10.407-11.225c7.6766-2.0112 13.135-7.4775 15.179-15.2 0.31396-1.1863 0.44221-2.5572 0.44221-4.7264 0-2.1692-0.12825-3.54-0.44221-4.7264-2.0489-7.7424-7.4765-13.17-15.219-15.219-2.3041-0.60975-7.1486-0.60975-9.4527 0-2.5787 0.68243-4.5038 1.5392-6.6397 2.9552-4.2691 2.8301-7.1863 7.0002-8.5793 12.264-0.60975 2.3041-0.60975 7.1486 0 9.4527 1.9225 7.2647 6.9689 12.642 13.957 14.873 3.0322 0.96803 7.7599 1.1118 10.755 0.32713zm26.398-45.562c-2.1404-0.56703-3.8936-1.9953-4.9492-4.0318-0.54469-1.0509-0.64969-1.5695-0.64969-3.2089 0-2.2809 0.62921-3.7825 2.2168-5.2904 1.5593-1.4811 2.8654-2.0124 4.9708-2.0219 3.1068-0.0141 5.6103 1.5771 6.8899 4.3792 0.81462 1.7839 0.77089 4.4362-0.10075 6.1108-0.75903 1.4582-2.1214 2.8083-3.5606 3.5285-1.1462 0.57358-3.6299 0.84923-4.8174 0.53466z" stroke-width=".24443"/>
 </g>
</svg>
