<?xml version="1.0" encoding="UTF-8"?>
<svg  version="1.1" viewBox="0 0 158.7 158.7" xmlns="http://www.w3.org/2000/svg" xmlns:cc="http://creativecommons.org/ns#" xmlns:dc="http://purl.org/dc/elements/1.1/" xmlns:rdf="http://www.w3.org/1999/02/22-rdf-syntax-ns#">
 <metadata>
  <rdf:RDF>
   <cc:Work rdf:about="">
    <dc:format>image/svg+xml</dc:format>
    <dc:type rdf:resource="http://purl.org/dc/dcmitype/StillImage"/>
    <dc:title/>
   </cc:Work>
  </rdf:RDF>
 </metadata>
 <g transform="translate(-21.942 -68.068)">
  <g transform="translate(16.631 4.5357)">
   <g transform="matrix(.95958 0 0 .95958 3.4219 5.7752)">
    <g stroke-width=".26458">
     <path d="m78.267 222.07c0.19099-0.0764 0.4192-0.067 0.50712 0.0209 0.08792 0.0879-0.06835 0.15045-0.34727 0.13896-0.30823-0.0127-0.37092-0.0754-0.15985-0.15985zm12.435 0c0.191-0.0764 0.4192-0.067 0.50712 0.0209 0.08792 0.0879-0.06835 0.15045-0.34726 0.13896-0.30823-0.0127-0.37092-0.0754-0.15985-0.15985zm-62.426-23.036c-0.32911-0.41964-0.31975-0.429 0.0999-0.0999 0.44073 0.34564 0.58089 0.56291 0.36313 0.56291-0.05494 0-0.2633-0.20836-0.46302-0.46302zm112.22 0.36313c0-0.0549 0.20836-0.2633 0.46302-0.46302 0.41964-0.32911 0.429-0.31975 0.0999 0.0999-0.34565 0.44073-0.56292 0.58089-0.56292 0.36313zm-65.021-15.179c2.292-0.044 6.0424-0.044 8.3344 0 2.292 0.0441 0.41672 0.0801-4.1672 0.0801s-6.4591-0.036-4.1672-0.0801zm-44.936-20.572c2.64e-4 -2.6194 0.03987-3.6552 0.08799-2.3017s0.04789 3.4966-5.02e-4 4.7625c-0.0484 1.266-0.08776 0.1586-0.08749-2.4608zm88.331 1.7945c0.40218-0.0608 0.99749-0.0592 1.3229 4e-3 0.32542 0.0628-4e-3 0.11255-0.73125 0.11057-0.7276-2e-3 -0.99385-0.0534-0.59167-0.11419zm22.684-7.583c0-0.0549 0.20836-0.2633 0.46302-0.46302 0.41965-0.3291 0.42901-0.31975 0.0999 0.0999-0.34565 0.44073-0.56292 0.58089-0.56292 0.36312zm2.1167-2.1167c0-0.0549 0.20836-0.2633 0.46302-0.46302 0.41964-0.32911 0.429-0.31975 0.0999 0.0999-0.34565 0.44073-0.56292 0.58089-0.56292 0.36313zm-19.364-4.8434c0.19099-0.0764 0.4192-0.067 0.50711 0.0209 0.0879 0.0879-0.0684 0.15045-0.34726 0.13896-0.30823-0.0127-0.37092-0.0754-0.15985-0.15985zm-118.99-1.8257c0.012696-0.30823 0.07539-0.37092 0.15985-0.15985 0.07643 0.19099 0.067031 0.4192-0.020888 0.50712-0.087919 0.0879-0.15045-0.0684-0.13896-0.34727zm158.49 0c0.0127-0.30823 0.0754-0.37092 0.15985-0.15985 0.0764 0.19099 0.067 0.4192-0.0209 0.50712-0.0879 0.0879-0.15046-0.0684-0.13897-0.34727zm-12.899-12.149c1e-3 -1.0186 0.049-1.4029 0.10627-0.85399 0.0573 0.54895 0.0563 1.3824-2e-3 1.8521-0.0584 0.4697-0.10531 0.0206-0.10413-0.99809zm-145.59-0.28663c0.012696-0.30822 0.07539-0.37092 0.15985-0.15985 0.07643 0.191 0.067031 0.4192-0.020888 0.50712-0.087919 0.0879-0.15045-0.0683-0.13896-0.34727zm158.49 0c0.0127-0.30822 0.0754-0.37092 0.15985-0.15985 0.0764 0.191 0.067 0.4192-0.0209 0.50712-0.0879 0.0879-0.15046-0.0683-0.13897-0.34727zm-44.669-14.329c0.98227-0.0509 2.5896-0.0509 3.5719 0 0.98226 0.0509 0.17859 0.0926-1.7859 0.0926s-2.7682-0.0416-1.7859-0.0926zm-87.643-13.133c0-0.0549 0.20836-0.2633 0.46302-0.46302 0.41964-0.32911 0.429-0.31975 0.0999 0.0999-0.34564 0.44073-0.56292 0.58088-0.56292 0.36312zm92.819-1.4038c0.19099-0.0764 0.4192-0.067 0.50711 0.0209 0.0879 0.0879-0.0684 0.15045-0.34726 0.13896-0.30823-0.0127-0.37092-0.0754-0.15985-0.15985zm-96.259-20.821c0-0.05494 0.20836-0.2633 0.46302-0.46302 0.41964-0.32911 0.429-0.31975 0.09989 0.0999-0.34564 0.44073-0.56292 0.58089-0.56292 0.36313zm112.68-0.36313c-0.32911-0.41964-0.31975-0.429 0.0999-0.0999 0.44073 0.34564 0.58089 0.56292 0.36312 0.56292-0.0549 0-0.2633-0.20836-0.46302-0.46302zm-62.458-23.001c0.19099-0.07643 0.4192-0.06703 0.50712 0.02089 0.08792 0.08792-0.06835 0.15045-0.34727 0.13896-0.30823-0.0127-0.37092-0.07539-0.15985-0.15985zm12.435 0c0.191-0.07643 0.4192-0.06703 0.50712 0.02089 0.08792 0.08792-0.06835 0.15045-0.34726 0.13896-0.30823-0.0127-0.37092-0.07539-0.15985-0.15985z" fill="#cdeaf6"/>
     <path d="m79.044 222.07c0.1819-0.0734 0.47956-0.0734 0.66146 0s0.03307 0.13345-0.33073 0.13345c-0.3638 0-0.51263-0.0601-0.33073-0.13345zm10.583 0c0.1819-0.0734 0.47956-0.0734 0.66146 0s0.03307 0.13345-0.33073 0.13345c-0.3638 0-0.51263-0.0601-0.33073-0.13345zm-58.176-20.132c-0.32911-0.41965-0.31975-0.429 0.0999-0.0999 0.44073 0.34565 0.58089 0.56292 0.36312 0.56292-0.05494 0-0.2633-0.20836-0.46302-0.46302zm105.87 0.36312c0-0.0549 0.20836-0.2633 0.46302-0.46302 0.41964-0.3291 0.429-0.31975 0.0999 0.0999-0.34565 0.44073-0.56292 0.58089-0.56292 0.36312zm-111.95-6.4485c-0.32911-0.41964-0.31975-0.429 0.09989-0.0999 0.25466 0.19972 0.46302 0.40808 0.46302 0.46302 0 0.21776-0.21727 0.0776-0.56292-0.36313zm118.04 0.36313c0-0.0549 0.20835-0.2633 0.46302-0.46302 0.41964-0.32911 0.429-0.31975 0.0999 0.0999-0.34564 0.44073-0.56291 0.58089-0.56291 0.36313zm-52.306-12.004c1.8639-0.0455 4.8404-0.0454 6.6146 2.6e-4 1.7742 0.0457 0.24918 0.083-3.3888 0.0828-3.638-1.6e-4 -5.0896-0.0375-3.2257-0.0831zm20.821-3.8708c0-0.0549 0.20836-0.2633 0.46302-0.46302 0.41964-0.32911 0.429-0.31975 0.0999 0.0999-0.34565 0.44073-0.56292 0.58089-0.56292 0.36313zm-81.399-9.9543c0-1.2369 0.04558-1.743 0.10128-1.1245 0.0557 0.61846 0.0557 1.6305 0 2.249-0.0557 0.61846-0.10128 0.11244-0.10128-1.1245zm86.492-4.0349c0.0527-0.68517 0.18793-0.86705 0.66551-0.8951 0.46743-0.0274 0.48541-9e-3 0.0817 0.0825-0.32013 0.0728-0.57409 0.41437-0.66551 0.8951-0.14056 0.73909-0.14458 0.73503-0.0817-0.0825zm3.9738-0.91096c0.25743-0.0671 0.61462-0.0627 0.79375 0.01 0.17913 0.0725-0.0315 0.12736-0.46805 0.12197-0.43657-5e-3 -0.58313-0.0647-0.3257-0.13177zm-3.0477-14.544c0.1819-0.0734 0.47956-0.0734 0.66146 0s0.0331 0.13345-0.33073 0.13345c-0.3638 0-0.51263-0.0601-0.33073-0.13345zm5.2917 0c0.1819-0.0734 0.47955-0.0734 0.66145 0 0.18191 0.0734 0.0331 0.13345-0.33072 0.13345-0.36381 0-0.51264-0.0601-0.33073-0.13345zm-117.9-2.7352c0-0.36381 0.060053-0.51263 0.13345-0.33073 0.073399 0.1819 0.073399 0.47955 0 0.66146-0.073399 0.1819-0.13345 0.0331-0.13345-0.33073zm158.49 0c0-0.36381 0.06-0.51263 0.13345-0.33073 0.0734 0.1819 0.0734 0.47955 0 0.66146-0.0734 0.1819-0.13345 0.0331-0.13345-0.33073zm-12.965-8.9958c0-0.3638 0.0601-0.51263 0.13346-0.33073 0.0734 0.18191 0.0734 0.47956 0 0.66146s-0.13346 0.0331-0.13346-0.33073zm-145.52-1.5875c0-0.3638 0.060053-0.51263 0.13345-0.33073 0.073399 0.18191 0.073399 0.47956 0 0.66146s-0.13345 0.0331-0.13345-0.33073zm158.49 0c0-0.3638 0.06-0.51263 0.13345-0.33073 0.0734 0.18191 0.0734 0.47956 0 0.66146s-0.13345 0.0331-0.13345-0.33073zm-27.762-0.79375c0-0.50932 0.0545-0.71768 0.121-0.46302s0.0665 0.67138 0 0.92604c-0.0666 0.25467-0.121 0.0463-0.121-0.46302zm-0.01-1.9844c5e-3 -0.43656 0.0647-0.58313 0.13177-0.3257 0.0671 0.25744 0.0627 0.61462-0.01 0.79375-0.0725 0.17914-0.12737-0.0315-0.12197-0.46805zm14.786-0.022c0.0127-0.30823 0.0754-0.37092 0.15985-0.15985 0.0764 0.19099 0.067 0.4192-0.0209 0.50711-0.0879 0.0879-0.15045-0.0683-0.13897-0.34726zm-8.1031-18.697-1.0459-1.1245 1.1245 1.0459c1.0458 0.97266 1.2461 1.2031 1.0459 1.2031-0.0432 0-0.54925-0.50602-1.1245-1.1245zm-117.59-25.963c0-0.05494 0.20836-0.2633 0.46302-0.46302 0.41964-0.32911 0.429-0.31975 0.0999 0.0999-0.34564 0.44073-0.56292 0.58089-0.56292 0.36312zm118.5-0.36312c-0.32911-0.41964-0.31975-0.429 0.0999-0.0999 0.25467 0.19972 0.46303 0.40808 0.46303 0.46302 0 0.21776-0.21728 0.07761-0.56292-0.36312zm-112.41-5.7223c0-0.05494 0.20836-0.2633 0.46302-0.46302 0.41964-0.32911 0.429-0.31975 0.0999 0.0999-0.34564 0.44073-0.56292 0.58089-0.56292 0.36313zm106.33-0.36313c-0.32911-0.41964-0.31975-0.429 0.0999-0.0999 0.25466 0.19972 0.46302 0.40808 0.46302 0.46302 0 0.21776-0.21727 0.0776-0.56292-0.36313zm-58.505-20.085c0.1819-0.0734 0.47956-0.0734 0.66146 0s0.03307 0.13345-0.33073 0.13345c-0.3638 0-0.51263-0.06005-0.33073-0.13345zm10.583 0c0.1819-0.0734 0.47956-0.0734 0.66146 0s0.03307 0.13345-0.33073 0.13345c-0.3638 0-0.51263-0.06005-0.33073-0.13345z" fill="#9ed8f0"/>
     <path d="m73.769 168.62c0.191-0.0764 0.4192-0.067 0.50712 0.0209 0.08792 0.0879-0.06835 0.15046-0.34727 0.13897-0.30823-0.0127-0.37092-0.0754-0.15985-0.15985zm1.3725-0.74531c0.34178-0.3638 0.68094-0.66145 0.7537-0.66145s-0.14734 0.29765-0.48912 0.66145c-0.34178 0.36381-0.68094 0.66146-0.7537 0.66146-0.07276 0 0.14734-0.29765 0.48912-0.66146zm-4.5122-1.6536-0.9118-0.99219 0.99219 0.9118c0.92351 0.84868 1.1138 1.0726 0.9118 1.0726-0.04421 0-0.4907-0.44649-0.99219-0.99219zm8.084-1.6536c0.56839-0.58208 1.093-1.0583 1.1657-1.0583 0.07276 0-0.33276 0.47625-0.90114 1.0583-0.56839 0.58209-1.093 1.0583-1.1657 1.0583s0.33276-0.47625 0.90114-1.0583zm-11.658-1.6536-0.7771-0.8599 0.8599 0.77711c0.80154 0.72437 0.98151 0.94268 0.7771 0.94268-0.04553 0-0.43249-0.38695-0.8599-0.85989zm20.125-6.5484c2.6163-2.6194 4.8165-4.7625 4.8893-4.7625 0.07276 0-2.0084 2.1431-4.6247 4.7625-2.6163 2.6194-4.8165 4.7625-4.8893 4.7625-0.07276 0 2.0084-2.1431 4.6247-4.7625zm-24.09 2.8443-1.0459-1.1245 1.1245 1.0459c1.0458 0.97266 1.2461 1.2031 1.0459 1.2031-0.04323 0-0.54924-0.50602-1.1245-1.1245zm-5.9483-5.6885-1.7121-1.7859 1.7859 1.7122c1.6589 1.5903 1.9069 1.8597 1.7121 1.8597-0.04058 0-0.84426-0.80368-1.7859-1.7859zm-3.854-4.101-0.50403-0.59532 0.59531 0.50403c0.55945 0.47367 0.71576 0.6866 0.50403 0.6866-0.05021 0-0.3181-0.26789-0.59531-0.59531zm40.639-0.0661c0.34178-0.3638 0.68094-0.66146 0.7537-0.66146 0.07276 0-0.14734 0.29766-0.48912 0.66146-0.34178 0.3638-0.68094 0.66146-0.7537 0.66146s0.14734-0.29766 0.48912-0.66146zm-44.694-8.2241c0.0127-0.30823 0.07539-0.37092 0.15985-0.15985 0.07643 0.19099 0.06703 0.4192-0.02088 0.50712-0.08792 0.0879-0.15045-0.0684-0.13896-0.34727zm49.212-0.52917c0.0127-0.30822 0.07539-0.37092 0.15985-0.15985 0.07643 0.191 0.06703 0.4192-0.02088 0.50712-0.08792 0.0879-0.15045-0.0683-0.13896-0.34727zm-49.446-1.3009c0.0054-0.43656 0.06469-0.58312 0.13177-0.32569 0.06708 0.25743 0.06267 0.61462-0.0098 0.79375-0.07248 0.17913-0.12736-0.0315-0.12197-0.46806zm49.766-1.3229c0.0021-0.72761 0.05337-0.99386 0.11419-0.59168 0.06082 0.40219 0.05919 0.9975-0.0036 1.3229-0.0628 0.32542-0.11256-4e-3 -0.11058-0.73124zm-49.766-1.8521c0.0054-0.43656 0.06469-0.58312 0.13177-0.32569 0.06708 0.25743 0.06267 0.61462-0.0098 0.79375-0.07248 0.17913-0.12736-0.0315-0.12197-0.46806zm49.446-0.81579c0.0127-0.30823 0.07539-0.37092 0.15985-0.15986 0.07643 0.191 0.06703 0.4192-0.02088 0.50712-0.08792 0.0879-0.15045-0.0684-0.13896-0.34726zm-25.7-4.8066-0.9118-0.99219 0.98916 0.90886 0.98916 0.90887 1.4613-1.2886-0.64143 0.7276c-0.35279 0.40018-0.71639 0.72761-0.808 0.72761-0.09161 0-0.57687-0.44649-1.0784-0.99219zm-20.094-1.7535c0-0.0549 0.20836-0.2633 0.46302-0.46302 0.41964-0.32911 0.429-0.31975 0.0999 0.0999-0.34564 0.44073-0.56292 0.58089-0.56292 0.36313zm5.5066-2.7267c0.191-0.0764 0.4192-0.067 0.50712 0.0209 0.08792 0.0879-0.06835 0.15045-0.34726 0.13896-0.30823-0.0127-0.37092-0.0754-0.15985-0.15985zm2.3647-0.27524c0.47294-0.0587 1.2468-0.0587 1.7198 0 0.47294 0.0587 0.08599 0.10671-0.8599 0.10671s-1.3328-0.048-0.8599-0.10671zm23.3 0.0107c0.19099-0.0764 0.4192-0.067 0.50712 0.0209 0.08792 0.0879-0.06835 0.15045-0.34727 0.13896-0.30823-0.0127-0.37092-0.0754-0.15985-0.15985zm4.2333 0c0.191-0.0764 0.4192-0.067 0.50712 0.0209 0.08792 0.0879-0.06835 0.15045-0.34727 0.13896-0.30823-0.0127-0.37092-0.0754-0.15985-0.15985z" fill="#fe9e9c"/>
     <path d="m142.61 197.01c0-0.0549 0.20835-0.2633 0.46302-0.46302 0.41964-0.32911 0.429-0.31975 0.0999 0.0999-0.34564 0.44073-0.56291 0.58089-0.56291 0.36313zm-108.76-16.503-0.64143-0.72761 0.7276 0.64144c0.68006 0.59951 0.84894 0.81377 0.64143 0.81377-0.04739 0-0.37481-0.32742-0.7276-0.7276z" fill="#74c7ea"/>
     <path d="m80.505 222.07c0.25743-0.0671 0.61462-0.0627 0.79375 0.01 0.17913 0.0725-0.03149 0.12736-0.46806 0.12197-0.43656-5e-3 -0.58313-0.0647-0.32569-0.13177zm7.6729 0c0.25743-0.0671 0.61462-0.0627 0.79375 0.01 0.17913 0.0725-0.03149 0.12736-0.46806 0.12197-0.43656-5e-3 -0.58312-0.0647-0.32569-0.13177zm-58.428-21.843-0.77711-0.8599 0.8599 0.77711c0.47294 0.4274 0.8599 0.81436 0.8599 0.85989 0 0.20441-0.21832 0.0245-0.94269-0.7771zm108.89 0.7771c0-0.0455 0.38695-0.43249 0.85989-0.85989l0.8599-0.77711-0.77711 0.8599c-0.72437 0.80154-0.94268 0.98151-0.94268 0.7771zm-111.54-3.4229-0.7771-0.85989 0.8599 0.7771c0.80154 0.72437 0.98151 0.94269 0.7771 0.94269-0.04554 0-0.43249-0.38695-0.8599-0.8599zm114.71 0.19844c0.34177-0.3638 0.68093-0.66146 0.7537-0.66146 0.0728 0-0.14735 0.29766-0.48912 0.66146-0.34178 0.3638-0.68094 0.66146-0.7537 0.66146-0.0728 0 0.14734-0.29766 0.48912-0.66146zm-96.639-13.294c1.3461-0.048 3.5487-0.048 4.8948 0 1.3461 0.048 0.24474 0.0873-2.4474 0.0873-2.6921 0-3.7935-0.0393-2.4474-0.0873zm56.489-0.25695c0.40019-0.0606 1.055-0.0606 1.4552 0s0.0728 0.11022-0.7276 0.11022c-0.80037 0-1.1278-0.0496-0.72761-0.11022zm15.321-16.215c0-0.36381 0.0601-0.51263 0.13345-0.33073 0.0734 0.1819 0.0734 0.47955 0 0.66146-0.0734 0.1819-0.13345 0.0331-0.13345-0.33073zm5.4649-2.562c0.191-0.0764 0.4192-0.067 0.50712 0.0209 0.0879 0.0879-0.0684 0.15046-0.34726 0.13897-0.30823-0.0127-0.37092-0.0754-0.15986-0.15985zm19.893-8.1041c0-0.0455 0.38695-0.43249 0.8599-0.85989l0.85989-0.77711-0.7771 0.8599c-0.72437 0.80154-0.94269 0.98151-0.94269 0.7771zm-22.549-6.4613c0.62231-0.0559 1.5748-0.0551 2.1167 2e-3 0.54186 0.0568 0.0327 0.10259-1.1315 0.10162-1.1642-1e-3 -1.6075-0.0475-0.98519-0.10337zm-114.45-4.1716c0.00539-0.43656 0.06469-0.58313 0.13177-0.3257 0.067083 0.25744 0.062672 0.61462-0.0098 0.79375-0.072476 0.17914-0.12736-0.0315-0.12197-0.46805zm126.42 0.56156c0-0.0549 0.20836-0.2633 0.46302-0.46302 0.41964-0.32911 0.429-0.31975 0.0999 0.0999-0.34565 0.44073-0.56292 0.58088-0.56292 0.36312zm32.066-0.56156c5e-3 -0.43656 0.0647-0.58313 0.13178-0.3257 0.0671 0.25744 0.0627 0.61462-0.01 0.79375-0.0725 0.17914-0.12736-0.0315-0.12197-0.46805zm-12.995-6.6366c0.0127-0.30823 0.0754-0.37092 0.15985-0.15986 0.0764 0.191 0.067 0.4192-0.0209 0.50712-0.0879 0.0879-0.15045-0.0684-0.13896-0.34726zm-145.49-1.0363c0.00539-0.43656 0.06469-0.58312 0.13177-0.32569 0.067083 0.25743 0.062672 0.61462-0.0098 0.79375-0.072476 0.17913-0.12736-0.0315-0.12197-0.46806zm158.49 0c5e-3 -0.43656 0.0647-0.58312 0.13178-0.32569 0.0671 0.25743 0.0627 0.61462-0.01 0.79375-0.0725 0.17913-0.12736-0.0315-0.12197-0.46806zm-31.686-12.898-0.77711-0.85989 0.8599 0.7771c0.80154 0.72437 0.98151 0.94269 0.7771 0.94269-0.0455 0-0.43248-0.38695-0.85989-0.8599zm-75.874-18.653c12.103-0.0381 31.987-0.0381 44.185 0 12.199 0.038 2.2963 0.0692-22.006 0.0692-24.302 0-34.283-0.0311-22.18-0.0692zm-29.811-18.67c0-0.04553 0.38695-0.43249 0.8599-0.8599l0.8599-0.77711-0.7771 0.8599c-0.72437 0.80154-0.94269 0.98151-0.94269 0.7771zm115.47-0.7771-0.7771-0.8599 0.85989 0.77711c0.47295 0.42741 0.8599 0.81436 0.8599 0.8599 0 0.20441-0.21832 0.02444-0.94269-0.7771zm-112.83-1.8687c0-0.04554 0.38695-0.43249 0.8599-0.8599l0.8599-0.7771-0.77711 0.8599c-0.72437 0.80154-0.94269 0.98151-0.94269 0.7771zm110.18-0.7771-0.77711-0.8599 0.8599 0.7771c0.47294 0.42741 0.8599 0.81436 0.8599 0.8599 0 0.20441-0.21832 0.02444-0.94269-0.7771zm-58.782-21.813c0.25743-0.06708 0.61462-0.06267 0.79375 0.0098 0.17913 0.07248-0.03149 0.12736-0.46806 0.12197-0.43656-0.0054-0.58313-0.06469-0.32569-0.13177zm7.6729 0c0.25743-0.06708 0.61462-0.06267 0.79375 0.0098 0.17913 0.07248-0.03149 0.12736-0.46806 0.12197-0.43656-0.0054-0.58312-0.06469-0.32569-0.13177z" fill="#56bce5"/>
     <path d="m68.056 163.71c-7.0863-6.5529-13.041-12.409-14.732-14.487-3.2211-3.9581-4.7497-8.9847-4.1098-13.514 0.86585-6.1292 5.4025-9.7721 12.169-9.7721 4.0499 0 7.8604 1.4605 10.836 4.1532l1.5984 1.4464 1.4361-1.2784c3.9725-3.5365 9.0197-5.186 13.249-4.3303 5.7884 1.171 9.7782 5.4992 10.12 10.978 0.22861 3.6643-0.67178 6.9722-2.7524 10.112-1.2046 1.8177-9.9262 10.78-16.603 17.061-3.3851 3.1844-4.9169 4.4566-5.3658 4.4566-0.44756 0-2.1289-1.3877-5.8458-4.8248z" fill="#fe5d5a"/>
     <path d="m80.036 222.09c-7.9597-0.50659-17.067-2.5052-24.209-5.3129-24.935-9.8018-43.305-31.516-48.778-57.66-1.2145-5.8006-1.5787-9.5475-1.5787-16.241 0-13.305 2.6144-24.253 8.6066-36.042 10.868-21.381 30.83-36.652 54.349-41.576 5.8006-1.2145 9.5475-1.5787 16.241-1.5787 13.305 0 24.253 2.6144 36.042 8.6066 21.381 10.868 36.652 30.83 41.576 54.349 1.2145 5.8006 1.5787 9.5475 1.5787 16.241s-0.36422 10.44-1.5787 16.241c-2.9159 13.927-9.6836 27.094-19.231 37.414-12.888 13.932-29.823 22.653-48.651 25.054-3.1274 0.39889-11.438 0.69066-14.366 0.50434zm20.77-37.768c3.6041-0.0791 4.3172-0.17091 5.8847-0.75773 6.4638-2.4197 9.8173-7.3801 10.405-15.391l0.18658-2.5417h2.5095c5.3813 0 10.869-1.2542 15.542-3.552 9.6389-4.7399 15.211-13.125 15.663-23.568 0.29531-6.8329-1.1229-12.647-4.3564-17.859-1.4587-2.3514-5.3327-6.3397-7.702-7.9293-4.1871-2.8091-9.2648-4.5595-14.585-5.0276-3.8481-0.33861-89.13-0.35987-90.583-0.0226-1.1935 0.27692-2.4631 1.3788-2.9796 2.5861-0.30237 0.70667-0.36429 6.0862-0.36429 31.648 0 17.952 0.10297 31.339 0.24688 32.098 1.0736 5.661 5.1616 9.5053 11.03 10.372 1.2257 0.18111 50.429 0.13527 59.102-0.055zm16.669-47.64v-14.178l3.5057 4e-3c5.7516 6e-3 8.6894 1.0482 11.518 4.0841 2.5251 2.7106 3.4922 5.2804 3.4897 9.2734-4e-3 6.6601-2.6198 11.252-7.8727 13.819l-2.0415 0.99778-8.599 0.1778z" fill="#28aadf"/>
    </g>
    <path transform="matrix(.26458 0 0 .26458 -16.631 -4.5357)" d="m324.42 423.71c-44.981 0.2805-90.03-0.32714-134.97 0.86612-6.1802 2.8062-11.957 8.7339-10.642 16.074-1.4847 74.896-1.2799 149.83-0.0888 224.73-1.0851 12.178 3.6237 24.215 12.027 32.971 7.8106 9.0908 19.531 14.677 31.25 15.919 78.75-0.59083 157.52 0.0562 236.26-1.6947 12.861-1.076 23.887-9.8309 32.482-18.901 11.758-13.168 14.133-31.597 14.947-48.525 0.45755-3.5726 5.9473-1.3318 8.2982-2.2886 29.983 0.39804 60.622-8.933 83.663-28.399 3.127-4.0362 8.1355-6.4548 10.834-11.035 12.693-13.072 20.405-30.708 23.46-48.528 3.5543-25.444 1.261-52.298-11.09-75.212-8.004-15.373-21.544-27.078-34.931-37.693-21.294-14.217-47.414-18.875-72.652-17.896-62.947-0.44989-125.9-0.40537-188.84-0.38898zm191.27 56.253c18.209-0.31261 38.979 2.8865 50.709 18.459 12.983 16.687 12.994 40.09 5.3151 59.1-3.4017 5.4583-5.9387 12.391-11.029 16.458-7.6614 5.2702-15.702 11.095-24.683 13.27-9.2623-0.23146-19.286 0.9202-28.146-0.40271-1.7986-32.607-0.493-65.348-0.90558-98.005-0.76257-8.8442-0.42387-9.8561 8.7402-8.8803zm-127 12.546c19.53-0.45103 38.423 12.516 44.814 31.068 2.1519 4.8562 1.2037 10.406 2.9752 15.361-2.2123 13.193-5.1725 26.782-14.032 37.326-2.8479 6.5606-10.278 9.4703-13.649 15.687-20.019 21.085-41.073 41.245-62.695 60.647-4.8196 3.9296-9.0228-2.3484-12.868-4.5299-23.693-21.848-47.427-43.801-69.199-67.598-14.627-18.455-21.432-45.875-9.1988-67.279 7.028-13.239 22.519-19.067 36.605-20.224 18.534-0.84463 36.546 7.6138 49.889 20.118 10.528-6.9821 21.037-15.752 33.908-18.734 4.306-1.1887 8.8794-1.8289 13.449-1.8419z" fill="#fff" stroke-linecap="square" stroke-width="2.936"/>
   </g>
  </g>
 </g>
</svg>
