<?xml version="1.0" encoding="UTF-8" standalone="no"?>
<!-- Created with Inkscape (http://www.inkscape.org/) -->

<svg
   xmlns:dc="http://purl.org/dc/elements/1.1/"
   xmlns:cc="http://creativecommons.org/ns#"
   xmlns:rdf="http://www.w3.org/1999/02/22-rdf-syntax-ns#"
   xmlns:svg="http://www.w3.org/2000/svg"
   xmlns="http://www.w3.org/2000/svg"
   xmlns:sodipodi="http://sodipodi.sourceforge.net/DTD/sodipodi-0.dtd"
   xmlns:inkscape="http://www.inkscape.org/namespaces/inkscape"
   width="705.49908mm"
   height="705.55548mm"
   viewBox="0 0 705.49908 705.55548"
   version="1.1"
   id="svg8"
   inkscape:version="0.92.4 (5da689c313, 2019-01-14)"
   sodipodi:docname="logo blue button.svg">
  <defs
     id="defs2">
    <clipPath
       id="clipPath831"
       clipPathUnits="userSpaceOnUse">
      <path
         inkscape:connector-curvature="0"
         id="path829"
         d="M 0,2000 H 2000 V 0 H 0 Z" />
    </clipPath>
    <clipPath
       id="clipPath831-8"
       clipPathUnits="userSpaceOnUse">
      <path
         inkscape:connector-curvature="0"
         id="path829-9"
         d="M 0,2000 H 2000 V 0 H 0 Z" />
    </clipPath>
  </defs>
  <sodipodi:namedview
     id="base"
     pagecolor="#ffffff"
     bordercolor="#666666"
     borderopacity="1.0"
     inkscape:pageopacity="0.0"
     inkscape:pageshadow="2"
     inkscape:zoom="0.12374369"
     inkscape:cx="-230.09259"
     inkscape:cy="1258.0677"
     inkscape:document-units="mm"
     inkscape:current-layer="svg8"
     showgrid="false"
     inkscape:window-width="1920"
     inkscape:window-height="1017"
     inkscape:window-x="-8"
     inkscape:window-y="-8"
     inkscape:window-maximized="1" />
  <metadata
     id="metadata5">
    <rdf:RDF>
      <cc:Work
         rdf:about="">
        <dc:format>image/svg+xml</dc:format>
        <dc:type
           rdf:resource="http://purl.org/dc/dcmitype/StillImage" />
        <dc:title></dc:title>
      </cc:Work>
    </rdf:RDF>
  </metadata>
  <g
     transform="matrix(0.31001122,0,0,-0.31001122,42.763124,662.78893)"
     inkscape:label="logo"
     id="g823">
    <g
       id="g825">
      <g
         clip-path="url(#clipPath831-8)"
         id="g827">
        <g
           transform="translate(999.92,1931.0455)"
           id="g833">
          <path
             inkscape:connector-curvature="0"
             id="path835"
             style="fill:#ffffff;fill-opacity:1;fill-rule:nonzero;stroke:none"
             d="m 0,0 c -515.479,0 -933.205,-417.887 -933.205,-933.285 0,-515.399 417.726,-933.286 933.205,-933.286 515.479,0 933.285,417.887 933.285,933.286 C 933.285,-417.886 515.479,0 0,0" />
        </g>
        <g
           transform="translate(1500.2799,652.8278)"
           id="g837">
          <path
             inkscape:connector-curvature="0"
             id="path839"
             style="fill:#20aad8;fill-opacity:1;fill-rule:nonzero;stroke:none"
             d="M 0,0 -429.486,-247.98 V 268.138 L 0,500.2 Z M -510.439,388.289 -1020.478,658.667 -510.439,953.204 -0.32,658.667 Z M -587.233,-247.9 -1018.318,0.96 V 503 l 431.085,-232.862 z m 86.873,1595.072 c -552.276,0 -999.92,-447.724 -999.92,-1000 0,-552.276 447.644,-1000 999.92,-1000 552.276,0 999.92,447.724 999.92,1000 0.08,552.276 -447.564,1000 -999.92,1000" />
        </g>
      </g>
    </g>
  </g>
</svg>
