<?xml version="1.0" encoding="UTF-8"?>
<svg id="Logo_FIXED" data-name="Logo — FIXED" version="1.1" viewBox="0 0 400 400" xmlns="http://www.w3.org/2000/svg" xmlns:cc="http://creativecommons.org/ns#" xmlns:dc="http://purl.org/dc/elements/1.1/" xmlns:rdf="http://www.w3.org/1999/02/22-rdf-syntax-ns#">
 <metadata>
  <rdf:RDF>
   <cc:Work rdf:about="">
    <dc:format>image/svg+xml</dc:format>
    <dc:type rdf:resource="http://purl.org/dc/dcmitype/StillImage"/>
    <dc:title>Twitter_Logo_Blue</dc:title>
   </cc:Work>
  </rdf:RDF>
 </metadata>
 <defs>
  <style>.cls-1{fill:#111;}.cls-2{fill:#111; stroke:none; stroke-width:16px}</style>
 </defs>
 <title>Twitter_Logo_Blue</title>
 <rect class="cls-1"/>
 <path class="cls-2" d="m127.28 359.27c147.92 0 228.82-122.55 228.82-228.82 0-3.4807 0-6.9458-0.23518-10.395a163.63 163.63 0 0 0 40.123-41.628 160.52 160.52 0 0 1-46.19 12.653 80.7 80.7 0 0 0 35.356-44.481 161.16 161.16 0 0 1-51.066 19.52 80.496 80.496 0 0 0-137.05 73.346 228.32 228.32 0 0 1-165.74-84.024 80.48 80.48 0 0 0 24.898 107.35 79.822 79.822 0 0 1-36.501-10.066v1.0191a80.449 80.449 0 0 0 64.519 78.834 80.292 80.292 0 0 1-36.313 1.3798 80.512 80.512 0 0 0 75.134 55.849 161.37 161.37 0 0 1-99.875 34.494 163.7 163.7 0 0 1-19.144-1.1602 227.67 227.67 0 0 0 123.27 36.062"/>
</svg>
